<?xml version="1.0" encoding="utf-8"?>
<!-- Generator: Adobe Illustrator 24.1.2, SVG Export Plug-In . SVG Version: 6.00 Build 0)  -->
<svg version="1.1" id="Capa_1" xmlns="http://www.w3.org/2000/svg" xmlns:xlink="http://www.w3.org/1999/xlink" x="0px" y="0px"
	 viewBox="0 0 512 512" style="enable-background:new 0 0 512 512;" xml:space="preserve">
<style type="text/css">
	.st0{fill:#FFFFFF;}
</style>
<path class="st0" d="M358.8,270c-2.4,0-4.3,1.9-4.3,4.3v71.1c0,12.4-10.1,22.5-22.5,22.5h-4.5c-12.4,0-22.5-10.1-22.5-22.5v-9
	c0-7.3-5.9-13.2-13.2-13.2c-7.3,0-13.2,5.9-13.2,13.2v35.8c0,12.4-10.1,22.5-22.5,22.5h-26.8c-12.4,0-22.5-10.1-22.5-22.5v-40.4h9.3
	v40.4c0,7.3,5.9,13.2,13.2,13.2h4c2.4,0,4.3-1.9,4.3-4.3s-1.9-4.3-4.3-4.3h-4c-2.5,0-4.6-2.1-4.6-4.6v-55.7c0-2.1,1.4-3.8,3.4-4.2
	c39.5-7.9,68.1-42.9,68.1-83.1V135c0-12.1-9.8-21.9-21.9-21.9h-19.9c-3.1-2.8-7.2-4.5-11.8-4.5c-9.8,0-17.7,8-17.7,17.7
	s8,17.7,17.7,17.7c4.5,0,8.6-1.7,11.7-4.4h15.2v88.8c0,32.3-26,58.8-57.9,58.9c-31.7,0.2-58.6-26.6-58.6-58.2v-89.5h15.2
	c3.1,2.8,7.2,4.4,11.7,4.4c9.8,0,17.7-8,17.7-17.7s-8-17.7-17.7-17.7c-4.5,0-8.6,1.7-11.8,4.5h-19.9c-12.1,0-21.9,9.8-21.9,21.9
	v75.8c0,2.4,1.9,4.3,4.3,4.3s4.3-1.9,4.3-4.3v-22h9.3v40.4c0,36.5,30.8,67,67.3,66.9c36.7-0.2,66.5-30.5,66.5-67.6v-39.7h9.3v40.4
	c0,36.2-25.7,67.6-61.2,74.7c-6,1.2-10.3,6.5-10.3,12.7v6.7h-9.2v-6.7c0-6.1-4.4-11.5-10.3-12.7c-35.2-7.1-61-38.3-61.2-74.2
	c0-2.4-1.9-4.3-4.3-4.3l0,0c-2.4,0-4.3,2-4.3,4.3c0.2,40,28.9,74.8,68.1,82.6c2,0.4,3.4,2.2,3.4,4.2v55.7c0,17.2,14,31.1,31.1,31.1
	H256c17.2,0,31.1-14,31.1-31.1v-35.8c0-2.5,2.1-4.6,4.6-4.6s4.6,2.1,4.6,4.6v9c0,17.2,14,31.1,31.1,31.1h4.5
	c17.2,0,31.1-14,31.1-31.1v-71.1C363.1,272,361.2,270,358.8,270z M189.1,126.4c0,5-4.1,9.1-9.1,9.1s-9.1-4.1-9.1-9.1
	c0-5,4.1-9.1,9.1-9.1S189.1,121.4,189.1,126.4z M135.2,180.1V135c0-7.3,6-13.3,13.3-13.3H163c-0.8,3.1-0.8,6.2,0,9.3h-14.2
	c-2.4,0-4.3,1.9-4.3,4.3v44.8H135.2z M233.5,126.4c0-5,4.1-9.1,9.1-9.1s9.1,4.1,9.1,9.1c0,5-4.1,9.1-9.1,9.1
	S233.5,131.4,233.5,126.4z M278.2,180.1v-44.8c0-2.4-1.9-4.3-4.3-4.3h-14.2c0.8-3.1,0.8-6.2,0-9.3h14.5c7.3,0,13.3,6,13.3,13.3v45.1
	H278.2z"/>
<path class="st0" d="M193.4,191.2L193.4,191.2c-1.8,0-3.4,1.1-4.1,2.8l-7.9,21.8h-14.9c-2.4,0-4.3,1.9-4.3,4.3
	c0,2.4,1.9,4.3,4.3,4.3h17.9c1.8,0,3.4-1.1,4.1-2.8l5-13.7l12.8,34.1c0.6,1.7,2.2,2.8,4,2.8h0.1c1.8,0,3.4-1.3,4-3l13-40.7l6.6,20.3
	c0.6,1.8,2.2,3,4.1,3H256c2.4,0,4.3-1.9,4.3-4.3c0-2.4-1.9-4.3-4.3-4.3h-14.7l-9.7-30.1c-0.6-1.8-2.2-3-4.1-3l0,0
	c-1.9,0-3.5,1.2-4.1,3L210,227.5L197.5,194C196.8,192.4,195.2,191.2,193.4,191.2L193.4,191.2z"/>
<path class="st0" d="M385.5,144.5c0-19.6-16-35.6-35.6-35.6s-35.6,16-35.6,35.6c0,14.9,9.3,27.8,22.3,33v167.8
	c0,2.5-2.1,4.6-4.6,4.6h-4.5c-2.5,0-4.6-2.1-4.6-4.6v-9c0-17.2-14-31.1-31.1-31.1c-17.2,0-31.1,14-31.1,31.1v35.8
	c0,2.5-2.1,4.6-4.6,4.6h-4c-2.4,0-4.3,1.9-4.3,4.3s1.9,4.3,4.3,4.3h4c7.3,0,13.2-5.9,13.2-13.2v-35.8c0-12.4,10.1-22.5,22.5-22.5
	s22.5,10.1,22.5,22.5v9c0,7.3,5.9,13.2,13.2,13.2h4.5c7.3,0,13.2-5.9,13.2-13.2V179.8c3.1,0.4,6.2,0.4,9.3,0v75.7
	c0,2.4,1.9,4.3,4.3,4.3s4.3-1.9,4.3-4.3v-78C376.2,172.3,385.5,159.5,385.5,144.5L385.5,144.5z M349.9,171.5c-14.9,0-27-12.1-27-27
	s12.1-27,27-27s27,12.1,27,27S364.7,171.5,349.9,171.5z"/>
<path class="st0" d="M349.9,126.5c-9.9,0-18,8.1-18,18s8.1,18,18,18s18-8.1,18-18S359.8,126.5,349.9,126.5z M349.9,153.9
	c-5.2,0-9.4-4.2-9.4-9.4s4.2-9.4,9.4-9.4s9.4,4.2,9.4,9.4C359.2,149.7,355,153.9,349.9,153.9z"/>
</svg>
